<svg version="1.1" id="Layer_1" xmlns="http://www.w3.org/2000/svg" xmlns:xlink="http://www.w3.org/1999/xlink" x="0px" y="0px"
	 width="100%" viewBox="0 0 330 104" enable-background="new 0 0 330 104" xml:space="preserve">
<path fill="#FEFEFE" opacity="1.000000" stroke="none" 
	d="
M237.000000,105.000000 
	C158.000031,105.000000 79.500046,105.000000 1.000053,105.000000 
	C1.000035,70.333366 1.000035,35.666733 1.000018,1.000076 
	C110.999931,1.000051 220.999863,1.000051 330.999817,1.000025 
	C330.999878,35.666592 330.999878,70.333183 330.999939,104.999886 
	C299.833344,105.000000 268.666656,105.000000 237.000000,105.000000 
M50.760277,78.037102 
	C51.185673,78.010765 51.611069,77.984436 52.905014,78.117882 
	C54.468178,78.036469 56.031342,77.955048 57.919083,77.856720 
	C57.919083,71.017067 57.722542,64.730278 57.983379,58.462517 
	C58.180073,53.736141 56.138927,53.107067 52.146229,54.469841 
	C52.023148,56.383610 51.907688,58.178841 51.235928,59.976196 
	C50.864185,59.973011 50.492443,59.969822 49.507359,59.536678 
	C47.354294,59.461536 44.438244,58.127537 44.306824,61.950890 
	C44.125744,67.218903 44.261448,72.497795 44.261448,78.055931 
	C46.570236,78.055931 48.345730,78.055931 50.760277,78.037102 
M83.884354,53.948551 
	C83.863464,60.706005 83.780533,67.464333 83.876289,74.220139 
	C83.894516,75.505486 84.619682,76.780815 85.659164,78.245903 
	C86.094849,78.183754 86.530533,78.121613 87.849113,78.217010 
	C90.230217,78.165398 92.611328,78.113792 95.611954,78.347679 
	C98.346893,78.714828 99.958946,78.125618 98.559021,74.787186 
	C95.133926,74.616074 91.740982,74.446564 88.382431,74.278778 
	C88.382431,71.490417 88.382431,69.283379 88.382431,67.117752 
	C96.911453,66.365707 96.911453,66.365707 96.938599,62.824562 
	C94.045731,62.824562 91.149864,62.824562 88.235123,62.824562 
	C88.235123,60.353046 88.235123,58.428429 88.235123,55.997868 
	C91.896454,55.997868 95.311943,55.997868 100.130219,55.997868 
	C98.654411,54.069778 97.935806,52.330391 97.225395,52.333740 
	C92.867889,52.354252 88.512230,52.769150 83.884354,53.948551 
M41.471260,67.199303 
	C41.947613,65.349808 42.793930,63.508450 42.834778,61.649387 
	C42.991913,54.497822 42.730194,47.334011 43.021965,40.190994 
	C43.080532,38.757248 44.897617,36.185932 45.870899,36.201508 
	C50.966568,36.283039 56.309082,36.219334 61.078876,37.736717 
	C67.914566,39.911312 71.883209,45.236374 72.357964,52.686287 
	C72.779259,59.297165 70.443085,64.992325 64.266243,67.371391 
	C58.399551,69.630997 58.801823,73.274551 59.845871,78.690094 
	C63.041775,77.743408 66.221298,77.327431 68.875908,75.920822 
	C78.463951,70.840363 81.244179,62.030144 80.796967,51.954121 
	C80.305145,40.872852 75.479271,31.689375 64.637421,28.522329 
	C56.230515,26.066555 47.004265,26.313179 38.117401,25.750868 
	C37.158886,25.690218 35.138916,28.234045 35.124817,29.585529 
	C34.963428,45.055016 35.095627,60.527561 35.061188,76.865013 
	C37.457214,77.454948 39.853237,78.044884 43.963005,79.056763 
	C42.761971,74.214478 41.978813,71.056969 41.471260,67.199303 
M171.130859,62.816723 
	C172.161377,63.880146 173.422012,64.802399 174.177811,66.034355 
	C176.176987,69.293137 177.719620,72.856506 179.934128,75.947433 
	C180.915298,77.316917 183.079575,77.838760 185.593781,79.239586 
	C185.593781,70.168175 185.570343,62.854568 185.604309,55.541229 
	C185.619766,52.214951 184.221130,51.463345 180.794754,53.125134 
	C180.794754,58.163437 180.794754,63.287727 180.794754,68.509819 
	C175.310165,63.603119 175.332001,54.840370 167.167862,51.535835 
	C167.167862,61.097099 167.167862,69.627869 167.167862,78.158646 
	C167.641663,78.408005 168.115479,78.657364 168.589279,78.906723 
	C169.380676,77.793762 170.769180,76.724731 170.854874,75.559853 
	C171.147263,71.584686 170.981140,67.575798 171.130859,62.816723 
M223.225159,68.788681 
	C223.301422,65.978485 222.899170,63.036751 223.622787,60.404518 
	C224.102234,58.660458 225.998825,56.475765 227.621933,56.115814 
	C229.165497,55.773510 231.218246,57.470673 232.970871,58.412930 
	C234.258072,59.104961 235.422180,60.025936 237.525040,61.438717 
	C236.336700,54.100945 233.937195,51.902180 228.591370,51.919247 
	C221.947678,51.940456 218.836044,56.405357 218.900848,65.824181 
	C218.958786,74.243561 222.676895,78.925247 229.247696,78.852440 
	C236.869064,78.767990 239.299408,74.529686 236.936890,64.914383 
	C235.221237,64.914383 233.392944,64.754837 231.612946,64.978874 
	C230.663849,65.098335 229.798187,65.880722 228.894882,66.363907 
	C229.570007,67.090347 230.292953,67.778717 230.908783,68.552368 
	C231.775711,69.641426 233.488144,71.313057 233.204681,71.817879 
	C232.466202,73.133087 230.927460,74.650192 229.546738,74.826843 
	C225.944962,75.287659 224.230606,72.794586 223.225159,68.788681 
M242.042206,67.459175 
	C242.042084,69.123421 241.749954,70.855049 242.114487,72.435165 
	C242.588394,74.489235 240.156845,78.015915 244.387054,78.132378 
	C245.025162,78.149948 245.995651,74.654701 246.381485,72.699341 
	C246.719543,70.986046 246.452057,69.153259 246.452057,67.106827 
	C248.476517,66.978577 249.933731,66.846481 251.393539,66.804413 
	C253.007843,66.757896 254.624527,66.793793 256.782501,66.793793 
	C256.782501,69.637886 256.820435,71.924927 256.772644,74.210167 
	C256.716553,76.892517 256.652008,79.503174 261.003571,77.819862 
	C261.003571,70.225426 261.069672,62.598339 260.918274,54.975571 
	C260.899750,54.043770 259.714569,53.135139 259.070068,52.215775 
	C258.308838,53.201714 257.037506,54.117371 256.890015,55.187874 
	C256.559021,57.590031 256.786346,60.069115 256.786346,62.732765 
	C253.150665,62.732765 250.064453,62.732765 246.448669,62.732765 
	C246.448669,60.209721 246.720810,57.877037 246.341858,55.655407 
	C246.130188,54.414474 244.837280,53.357975 244.031586,52.218361 
	C243.369110,53.309052 242.211441,54.366421 242.135391,55.496578 
	C241.890121,59.141434 242.043213,62.813099 242.042206,67.459175 
M151.887177,74.608543 
	C149.094437,74.608543 146.301697,74.608543 143.297668,74.608543 
	C143.297668,71.756844 143.297668,69.391342 143.297668,67.057686 
	C151.752579,66.425339 151.752579,66.425339 151.513992,62.859444 
	C148.792847,62.859444 146.038055,62.859444 143.266296,62.859444 
	C143.266296,60.370010 143.266296,58.328079 143.266296,55.818119 
	C147.021210,55.818119 150.428619,55.818119 153.896439,55.818119 
	C153.249664,51.870892 148.800156,51.064518 138.942749,52.720001 
	C138.942749,61.188667 138.942749,69.688614 138.942749,78.441620 
	C143.365494,78.441620 147.346741,78.496262 151.325729,78.425102 
	C154.786591,78.363213 154.757401,76.856636 151.887177,74.608543 
M193.871872,65.731293 
	C195.998642,66.668747 198.348618,67.306381 200.166016,68.659409 
	C201.207458,69.434746 201.983521,71.483376 201.748962,72.749397 
	C201.578552,73.669228 199.444656,74.974266 198.385208,74.811607 
	C196.627579,74.541763 194.998611,73.283661 193.375183,72.339211 
	C192.150589,71.626785 191.019318,70.753937 188.996552,69.371674 
	C189.824387,76.079414 192.438263,78.651527 197.522308,78.801147 
	C201.657776,78.922829 205.300537,77.746552 206.347504,73.167702 
	C207.444962,68.368057 204.661057,65.698845 200.565140,64.013420 
	C199.643036,63.633984 198.555130,63.453869 197.830170,62.842255 
	C196.423630,61.655617 195.015396,60.352512 194.078827,58.811424 
	C193.847824,58.431305 195.513657,56.077332 196.155441,56.141914 
	C198.078979,56.335472 199.976990,57.163925 201.788971,57.962410 
	C203.192322,58.580826 204.451324,59.526756 206.848236,60.976559 
	C205.728455,54.881035 203.325302,52.311836 198.899673,51.976311 
	C195.205017,51.696198 191.720505,52.352383 190.204407,56.274467 
	C188.773834,59.975273 189.780579,63.142269 193.871872,65.731293 
M120.496284,70.083290 
	C121.272224,72.279785 121.891434,74.552338 122.902084,76.634926 
	C123.300339,77.455574 124.585091,78.331230 125.442406,78.307915 
	C126.305847,78.284424 127.629303,77.342506 127.910561,76.516708 
	C130.582809,68.670479 133.075943,60.763252 135.625443,52.858540 
	C132.440872,51.274158 131.050995,52.506611 130.271194,55.267475 
	C128.813522,60.428314 127.248497,65.558830 125.323944,72.069298 
	C123.355270,65.450912 121.697723,60.252155 120.284996,54.987705 
	C119.449013,51.872478 117.890778,51.504734 115.110779,52.967327 
	C116.863670,58.570023 118.548317,63.954628 120.496284,70.083290 
M274.766998,60.640125 
	C274.872559,59.212383 274.978119,57.784645 275.109161,56.012085 
	C276.933197,56.012085 278.451111,56.243378 279.842926,55.924450 
	C280.664581,55.736176 281.286591,54.676685 281.998413,54.009003 
	C281.371246,53.394379 280.760010,52.266647 280.114410,52.246662 
	C275.146027,52.092812 270.169098,52.087265 265.200256,52.228252 
	C264.542084,52.246925 263.914673,53.350952 263.273010,53.952320 
	C263.969879,54.638752 264.577332,55.750771 265.382843,55.919949 
	C266.897186,56.238003 268.525879,56.011623 270.370941,56.011623 
	C270.370941,62.914845 270.271973,69.042030 270.461426,75.160286 
	C270.495880,76.272011 271.710114,77.347198 272.379730,78.439262 
	C273.175873,77.305786 274.587189,76.209732 274.658813,75.032181 
	C274.930115,70.572403 274.767273,66.086205 274.766998,60.640125 
M107.735619,78.530952 
	C110.700081,78.530952 113.664543,78.530952 116.800186,78.530952 
	C116.898888,77.305367 117.123352,75.836235 117.004005,75.807755 
	C113.802856,75.043823 110.566391,74.427872 106.862808,73.693031 
	C106.862808,67.514366 106.967125,61.233124 106.752594,54.962791 
	C106.719658,53.999931 105.217773,53.087330 104.395256,52.151485 
	C103.682190,53.034233 102.369698,53.904011 102.350266,54.801773 
	C102.185402,62.419960 102.256050,70.043243 102.256050,78.114799 
	C103.977058,78.270798 105.405479,78.400284 107.735619,78.530952 
M210.176315,64.510406 
	C210.178543,68.339897 210.042801,72.178146 210.285095,75.992386 
	C210.341949,76.887512 211.676834,77.701469 212.423752,78.552757 
	C213.222778,77.758133 214.694748,76.980614 214.715454,76.166206 
	C214.897339,69.011414 214.897034,61.848179 214.722107,54.693039 
	C214.700653,53.815952 213.334091,52.971748 212.590881,52.112305 
	C211.788620,53.085297 210.417572,53.991650 210.294266,55.044189 
	C209.967117,57.836666 210.178864,60.692272 210.176315,64.510406 
M158.718369,52.176132 
	C158.279709,52.614487 157.465057,53.047165 157.458344,53.492031 
	C157.343628,61.092236 157.255783,68.695396 157.406204,76.293068 
	C157.421097,77.045624 159.026321,77.766678 159.893417,78.502357 
	C160.575638,77.614990 161.827072,76.741669 161.849365,75.838028 
	C162.016418,69.063568 162.051086,62.279617 161.834763,55.507973 
	C161.797958,54.355415 160.359726,53.247631 158.718369,52.176132 
M160.938675,42.473633 
	C159.080963,42.589439 157.223267,42.705246 155.365555,42.821053 
	C155.727463,45.069355 155.546448,47.676678 156.690979,49.407455 
	C157.225998,50.216518 160.840805,50.031075 162.149399,49.064228 
	C164.682953,47.192318 163.839767,44.743607 160.938675,42.473633 
M51.095970,47.114815 
	C51.816193,48.684456 52.536419,50.254097 53.256641,51.823742 
	C55.444218,50.554741 58.721622,49.775921 59.564434,47.902077 
	C60.834949,45.077320 58.794243,42.791046 56.120083,43.469364 
	C54.700993,44.642967 53.281902,45.816566 51.095970,47.114815 
z"/>
<path fill="#486DA7" opacity="1.000000" stroke="none" 
	d="
M35.149544,75.999290 
	C35.095627,60.527561 34.963428,45.055016 35.124817,29.585529 
	C35.138916,28.234045 37.158886,25.690218 38.117401,25.750868 
	C47.004265,26.313179 56.230515,26.066555 64.637421,28.522329 
	C75.479271,31.689375 80.305145,40.872852 80.796967,51.954121 
	C81.244179,62.030144 78.463951,70.840363 68.875908,75.920822 
	C66.221298,77.327431 63.041775,77.743408 59.845871,78.690094 
	C58.801823,73.274551 58.399551,69.630997 64.266243,67.371391 
	C70.443085,64.992325 72.779259,59.297165 72.357964,52.686287 
	C71.883209,45.236374 67.914566,39.911312 61.078876,37.736717 
	C56.309082,36.219334 50.966568,36.283039 45.870899,36.201508 
	C44.897617,36.185932 43.080532,38.757248 43.021965,40.190994 
	C42.730194,47.334011 42.991913,54.497822 42.834778,61.649387 
	C42.793930,63.508450 41.947613,65.349808 41.004921,67.705978 
	C38.742237,70.808197 36.945889,73.403748 35.149544,75.999290 
z"/>
<path fill="#4D71A7" opacity="1.000000" stroke="none" 
	d="
M171.060425,63.198250 
	C170.981140,67.575798 171.147263,71.584686 170.854874,75.559853 
	C170.769180,76.724731 169.380676,77.793762 168.589279,78.906723 
	C168.115479,78.657364 167.641663,78.408005 167.167862,78.158646 
	C167.167862,69.627869 167.167862,61.097099 167.167862,51.535835 
	C175.332001,54.840370 175.310165,63.603119 180.794754,68.509819 
	C180.794754,63.287727 180.794754,58.163437 180.794754,53.125134 
	C184.221130,51.463345 185.619766,52.214951 185.604309,55.541229 
	C185.570343,62.854568 185.593781,70.168175 185.593781,79.239586 
	C183.079575,77.838760 180.915298,77.316917 179.934128,75.947433 
	C177.719620,72.856506 176.176987,69.293137 174.177811,66.034355 
	C173.422012,64.802399 172.161377,63.880146 171.060425,63.198250 
z"/>
<path fill="#5476AB" opacity="1.000000" stroke="none" 
	d="
M223.303604,69.199509 
	C224.230606,72.794586 225.944962,75.287659 229.546738,74.826843 
	C230.927460,74.650192 232.466202,73.133087 233.204681,71.817879 
	C233.488144,71.313057 231.775711,69.641426 230.908783,68.552368 
	C230.292953,67.778717 229.570007,67.090347 228.894882,66.363899 
	C229.798187,65.880722 230.663849,65.098335 231.612946,64.978874 
	C233.392944,64.754837 235.221237,64.914383 236.936890,64.914383 
	C239.299408,74.529686 236.869064,78.767990 229.247696,78.852440 
	C222.676895,78.925247 218.958786,74.243561 218.900848,65.824181 
	C218.836044,56.405357 221.947678,51.940456 228.591370,51.919247 
	C233.937195,51.902180 236.336700,54.100945 237.525040,61.438717 
	C235.422180,60.025936 234.258072,59.104961 232.970871,58.412930 
	C231.218246,57.470673 229.165497,55.773510 227.621933,56.115814 
	C225.998825,56.475765 224.102234,58.660458 223.622787,60.404518 
	C222.899170,63.036751 223.301422,65.978485 223.303604,69.199509 
z"/>
<path fill="#4E72A6" opacity="1.000000" stroke="none" 
	d="
M242.042480,66.966797 
	C242.043213,62.813099 241.890121,59.141434 242.135391,55.496578 
	C242.211441,54.366421 243.369110,53.309052 244.031586,52.218365 
	C244.837280,53.357975 246.130188,54.414474 246.341858,55.655407 
	C246.720810,57.877037 246.448669,60.209721 246.448669,62.732765 
	C250.064453,62.732765 253.150665,62.732765 256.786346,62.732765 
	C256.786346,60.069115 256.559021,57.590031 256.890015,55.187874 
	C257.037506,54.117371 258.308838,53.201714 259.070068,52.215775 
	C259.714569,53.135139 260.899750,54.043770 260.918274,54.975571 
	C261.069672,62.598339 261.003571,70.225426 261.003571,77.819862 
	C256.652008,79.503174 256.716553,76.892517 256.772644,74.210167 
	C256.820435,71.924927 256.782501,69.637886 256.782501,66.793793 
	C254.624527,66.793793 253.007843,66.757896 251.393539,66.804413 
	C249.933731,66.846481 248.476517,66.978577 246.452057,67.106827 
	C246.452057,69.153259 246.719543,70.986046 246.381485,72.699341 
	C245.995651,74.654701 245.025162,78.149948 244.387054,78.132378 
	C240.156845,78.015915 242.588394,74.489235 242.114487,72.435165 
	C241.749954,70.855049 242.042084,69.123421 242.042480,66.966797 
z"/>
<path fill="#4E71A5" opacity="1.000000" stroke="none" 
	d="
M152.311264,74.638351 
	C154.757401,76.856636 154.786591,78.363213 151.325729,78.425102 
	C147.346741,78.496262 143.365494,78.441620 138.942749,78.441620 
	C138.942749,69.688614 138.942749,61.188667 138.942749,52.720001 
	C148.800156,51.064518 153.249664,51.870892 153.896439,55.818119 
	C150.428619,55.818119 147.021210,55.818119 143.266296,55.818119 
	C143.266296,58.328079 143.266296,60.370010 143.266296,62.859444 
	C146.038055,62.859444 148.792847,62.859444 151.513992,62.859444 
	C151.752579,66.425339 151.752579,66.425339 143.297668,67.057686 
	C143.297668,69.391342 143.297668,71.756844 143.297668,74.608543 
	C146.301697,74.608543 149.094437,74.608543 152.311264,74.638351 
z"/>
<path fill="#5474AB" opacity="1.000000" stroke="none" 
	d="
M193.556519,65.539413 
	C189.780579,63.142269 188.773834,59.975273 190.204407,56.274467 
	C191.720505,52.352383 195.205017,51.696198 198.899673,51.976311 
	C203.325302,52.311836 205.728455,54.881035 206.848236,60.976559 
	C204.451324,59.526756 203.192322,58.580826 201.788971,57.962410 
	C199.976990,57.163925 198.078979,56.335472 196.155441,56.141914 
	C195.513657,56.077332 193.847824,58.431305 194.078827,58.811424 
	C195.015396,60.352512 196.423630,61.655617 197.830170,62.842255 
	C198.555130,63.453869 199.643036,63.633984 200.565140,64.013420 
	C204.661057,65.698845 207.444962,68.368057 206.347504,73.167702 
	C205.300537,77.746552 201.657776,78.922829 197.522308,78.801147 
	C192.438263,78.651527 189.824387,76.079414 188.996552,69.371674 
	C191.019318,70.753937 192.150589,71.626785 193.375183,72.339211 
	C194.998611,73.283661 196.627579,74.541763 198.385208,74.811607 
	C199.444656,74.974266 201.578552,73.669228 201.748962,72.749397 
	C201.983521,71.483376 201.207458,69.434746 200.166016,68.659409 
	C198.348618,67.306381 195.998642,66.668747 193.556519,65.539413 
z"/>
<path fill="#5475AB" opacity="1.000000" stroke="none" 
	d="
M120.364624,69.711258 
	C118.548317,63.954628 116.863670,58.570023 115.110779,52.967327 
	C117.890778,51.504734 119.449013,51.872478 120.284996,54.987705 
	C121.697723,60.252155 123.355270,65.450912 125.323944,72.069298 
	C127.248497,65.558830 128.813522,60.428314 130.271194,55.267475 
	C131.050995,52.506611 132.440872,51.274158 135.625443,52.858540 
	C133.075943,60.763252 130.582809,68.670479 127.910561,76.516708 
	C127.629303,77.342506 126.305847,78.284424 125.442406,78.307915 
	C124.585091,78.331230 123.300339,77.455574 122.902084,76.634926 
	C121.891434,74.552338 121.272224,72.279785 120.364624,69.711258 
z"/>
<path fill="#5073AA" opacity="1.000000" stroke="none" 
	d="
M86.966217,78.059464 
	C86.530533,78.121613 86.094849,78.183754 85.336319,77.680023 
	C85.011627,75.130241 85.077148,73.143570 84.995354,71.162979 
	C84.746040,65.124969 84.439957,59.089306 84.155960,53.052727 
	C88.512230,52.769150 92.867889,52.354252 97.225395,52.333740 
	C97.935806,52.330391 98.654411,54.069778 100.130219,55.997868 
	C95.311943,55.997868 91.896454,55.997868 88.235123,55.997868 
	C88.235123,58.428429 88.235123,60.353046 88.235123,62.824562 
	C91.149864,62.824562 94.045731,62.824562 96.938599,62.824562 
	C96.911453,66.365707 96.911453,66.365707 88.382431,67.117752 
	C88.382431,69.283379 88.382431,71.490417 88.382431,74.278778 
	C91.740982,74.446564 95.133926,74.616074 98.559021,74.787186 
	C99.958946,78.125618 98.346893,78.714828 95.049461,77.903687 
	C91.980049,77.659615 89.473137,77.859543 86.966217,78.059464 
z"/>
<path fill="#597AAC" opacity="1.000000" stroke="none" 
	d="
M274.766907,61.125008 
	C274.767273,66.086205 274.930115,70.572403 274.658813,75.032181 
	C274.587189,76.209732 273.175873,77.305786 272.379730,78.439262 
	C271.710114,77.347198 270.495880,76.272011 270.461426,75.160286 
	C270.271973,69.042030 270.370941,62.914845 270.370941,56.011623 
	C268.525879,56.011623 266.897186,56.238003 265.382843,55.919949 
	C264.577332,55.750771 263.969879,54.638752 263.273010,53.952324 
	C263.914673,53.350952 264.542084,52.246925 265.200256,52.228252 
	C270.169098,52.087265 275.146027,52.092812 280.114410,52.246662 
	C280.760010,52.266647 281.371246,53.394379 281.998413,54.008995 
	C281.286591,54.676685 280.664581,55.736176 279.842926,55.924450 
	C278.451111,56.243378 276.933197,56.012085 275.109161,56.012085 
	C274.978119,57.784645 274.872559,59.212383 274.766907,61.125008 
z"/>
<path fill="#5A7BAE" opacity="1.000000" stroke="none" 
	d="
M107.284760,78.530357 
	C105.405479,78.400284 103.977058,78.270798 102.256050,78.114799 
	C102.256050,70.043243 102.185402,62.419960 102.350266,54.801773 
	C102.369698,53.904011 103.682190,53.034233 104.395256,52.151485 
	C105.217773,53.087330 106.719658,53.999931 106.752594,54.962791 
	C106.967125,61.233124 106.862808,67.514366 106.862808,73.693031 
	C110.566391,74.427872 113.802856,75.043823 117.004005,75.807755 
	C117.123352,75.836235 116.898888,77.305367 116.800186,78.530952 
	C113.664543,78.530952 110.700081,78.530952 107.284760,78.530357 
z"/>
<path fill="#EDC356" opacity="1.000000" stroke="none" 
	d="
M51.792229,59.974075 
	C51.907688,58.178841 52.023148,56.383610 52.146229,54.469841 
	C56.138927,53.107067 58.180073,53.736141 57.983379,58.462517 
	C57.722542,64.730278 57.919083,71.017067 57.919083,77.856720 
	C56.031342,77.955048 54.468178,78.036469 52.470451,77.573944 
	C51.954670,71.344688 51.873447,65.659386 51.792229,59.974075 
z"/>
<path fill="#6483B0" opacity="1.000000" stroke="none" 
	d="
M210.176270,64.016586 
	C210.178864,60.692272 209.967117,57.836666 210.294266,55.044189 
	C210.417572,53.991650 211.788620,53.085297 212.590881,52.112305 
	C213.334091,52.971748 214.700653,53.815952 214.722107,54.693039 
	C214.897034,61.848179 214.897339,69.011414 214.715454,76.166206 
	C214.694748,76.980614 213.222778,77.758133 212.423752,78.552765 
	C211.676834,77.701469 210.341949,76.887512 210.285095,75.992386 
	C210.042801,72.178146 210.178543,68.339897 210.176270,64.016586 
z"/>
<path fill="#617FAD" opacity="1.000000" stroke="none" 
	d="
M159.143646,52.147644 
	C160.359726,53.247631 161.797958,54.355415 161.834763,55.507973 
	C162.051086,62.279617 162.016418,69.063568 161.849365,75.838028 
	C161.827072,76.741669 160.575638,77.614990 159.893417,78.502357 
	C159.026321,77.766678 157.421097,77.045624 157.406204,76.293068 
	C157.255783,68.695396 157.343628,61.092236 157.458344,53.492031 
	C157.465057,53.047165 158.279709,52.614487 159.143646,52.147644 
z"/>
<path fill="#5277AC" opacity="1.000000" stroke="none" 
	d="
M50.121223,78.055931 
	C48.345730,78.055931 46.570236,78.055931 44.261448,78.055931 
	C44.261448,72.497795 44.125744,67.218903 44.306824,61.950890 
	C44.438244,58.127537 47.354294,59.461536 49.813622,60.221954 
	C50.120335,66.623459 50.120777,72.339699 50.121223,78.055931 
z"/>
<path fill="#EBBA6E" opacity="1.000000" stroke="none" 
	d="
M161.254303,42.656712 
	C163.839767,44.743607 164.682953,47.192318 162.149399,49.064228 
	C160.840805,50.031075 157.225998,50.216518 156.690979,49.407455 
	C155.546448,47.676678 155.727463,45.069355 155.365555,42.821053 
	C157.223267,42.705246 159.080963,42.589439 161.254303,42.656712 
z"/>
<path fill="#EFC256" opacity="1.000000" stroke="none" 
	d="
M51.479393,47.052490 
	C53.281902,45.816566 54.700993,44.642967 56.120083,43.469364 
	C58.794243,42.791046 60.834949,45.077320 59.564434,47.902077 
	C58.721622,49.775921 55.444218,50.554741 53.256641,51.823738 
	C52.536419,50.254097 51.816193,48.684456 51.479393,47.052490 
z"/>
<path fill="#476DA6" opacity="1.000000" stroke="none" 
	d="
M35.105366,76.432152 
	C36.945889,73.403748 38.742237,70.808197 40.867119,68.056053 
	C41.978813,71.056969 42.761971,74.214478 43.963005,79.056763 
	C39.853237,78.044884 37.457214,77.454948 35.105366,76.432152 
z"/>
<path fill="#DEE2E2" opacity="1.000000" stroke="none" 
	d="
M50.440750,78.046516 
	C50.120777,72.339699 50.120335,66.623459 50.120293,60.436932 
	C50.492443,59.969822 50.864185,59.973011 51.514076,59.975136 
	C51.873447,65.659386 51.954670,71.344688 52.036179,77.494049 
	C51.611069,77.984436 51.185673,78.010765 50.440750,78.046516 
z"/>
<path fill="#446999" opacity="1.000000" stroke="none" 
	d="
M84.020157,53.500641 
	C84.439957,59.089306 84.746040,65.124969 84.995354,71.162979 
	C85.077148,73.143570 85.011627,75.130241 85.016075,77.587448 
	C84.619682,76.780815 83.894516,75.505486 83.876289,74.220139 
	C83.780533,67.464333 83.863464,60.706005 84.020157,53.500641 
z"/>
<path fill="#446999" opacity="1.000000" stroke="none" 
	d="
M87.407669,78.138237 
	C89.473137,77.859543 91.980049,77.659615 94.739700,77.760941 
	C92.611328,78.113792 90.230217,78.165398 87.407669,78.138237 
z"/>
</svg>